<svg xmlns="http://www.w3.org/2000/svg" viewBox="0 0 100 120">
  <path d="M20 8h60l10 18v40c0 28-20 42-40 46-20-4-40-18-40-46V26z" fill="#fff" stroke="#111" stroke-width="2"/>
  <path d="M20 8h20v101c-8-3-20-13-20-43V26z" fill="#111"/>
  <path d="M60 8h20l10 18v40c0 30-12 40-20 43z" fill="#111"/>
  <text x="50" y="30" font-size="18" text-anchor="middle" font-family="Georgia" fill="#111">BJK</text>
  <path d="M34 45h32l4 6-4 28H34l-4-28z" fill="#e73339" stroke="#fff" stroke-width="2"/>
  <path d="M50 52a10 10 0 1 0 0 20 12 12 0 1 1 0-20z" fill="#fff"/>
  <polygon points="50,51 52,56 58,56 53,60 55,66 50,62 45,66 47,60 42,56 48,56" fill="#fff"/>
  <text x="50" y="95" font-size="16" text-anchor="middle" font-family="Arial" font-weight="700" fill="#111">1903</text>
</svg>
