<svg xmlns="http://www.w3.org/2000/svg" viewBox="0 0 100 100">
  <circle cx="50" cy="50" r="48" fill="#fff" stroke="#101010" stroke-width="2"/>
  <circle cx="50" cy="50" r="31" fill="#cf2038" stroke="#101010" stroke-width="1.5"/>
  <path d="M28 33h44L50 18z" fill="#0d4aa2"/>
  <path d="M28 67h44L50 82z" fill="#0d4aa2"/>
  <rect x="28" y="42" width="44" height="16" fill="#f5dc2a"/>
  <path d="M50 31c5 5 7 9 7 13 0 7-4 13-7 25-3-12-7-18-7-25 0-4 2-8 7-13z" fill="#53a738" stroke="#123b18" stroke-width="1"/>
  <path d="M50 44c-10 1-15 9-17 18 4-5 9-8 14-9M50 44c10 1 15 9 17 18-4-5-9-8-14-9" fill="none" stroke="#1e5c27" stroke-width="2" stroke-linecap="round"/>
  <path d="M50 33v30" stroke="#123b18" stroke-width="1.5"/>
  <path d="M13 49A37 37 0 0 1 49 13" fill="none" stroke="#111" stroke-width="2.6"/>
  <path d="M87 51A37 37 0 0 1 51 87" fill="none" stroke="#111" stroke-width="2.6"/>
  <text x="50" y="18" font-size="7" text-anchor="middle" font-family="Arial" fill="#111">FENERBAHCE</text>
  <text x="50" y="95" font-size="8" text-anchor="middle" font-family="Arial" fill="#111">1907</text>
</svg>
