<svg xmlns="http://www.w3.org/2000/svg" viewBox="0 0 100 120">
  <path d="M18 10h64c0 9 0 69 0 72 0 16-14 28-32 28S18 98 18 82z" fill="#7b1036"/>
  <path d="M23 49c10-15 27-22 41-20-10 5-17 12-18 20 9-4 20-2 26 3-8 1-14 6-15 13-1 9 4 16 12 22-12 3-26-1-34-12-8-11-11-19-12-26z" fill="#7fd0ff"/>
  <path d="M32 45c7-10 19-16 28-17-8 5-13 10-14 16 6-2 12-2 17 0-6 2-10 6-11 11-1 7 3 13 10 18-9 2-20-2-26-10-7-8-8-13-4-18z" fill="#7b1036"/>
  <path d="M52 24c7 0 12 6 12 12 0 4-2 8-5 10-3 2-4 4-4 6-1-2-2-4-5-6-3-2-5-6-5-10 0-6 5-12 12-12z" fill="#fff" opacity=".9"/>
  <path d="M46 19c2-3 5-4 9-4 6 0 11 4 13 10" fill="none" stroke="#fff" stroke-width="3" stroke-linecap="round"/>
  <text x="50" y="105" font-size="14" text-anchor="middle" font-family="Arial" font-weight="700" fill="#fff">1967</text>
</svg>
